# xmcd CD database file generated by MAGIX_Freedb v0.9beta0
# 
# Track frame offsets:
#      150
#      20820
#      39775
#      60750
#      78170
#      98177
#      120802
#      135000
#      152695
#      178387
#      195367
# 
# Disc length: 2878 seconds
# 
# Revision: 3 
# Processed by: cddbd v1.4PL0 Copyright (c) Steve Scherf et al.
# Submitted via: Gronk 1.4
# 
DISCID=720b3c0b
DTITLE=Lori Spee - Promises (Sings Herman Van Veen)
DYEAR=1900
DGENRE=blues
TTITLE0=Spee, Lori - Time Ticks (De Tijd Tikt)
TTITLE1=Do You Remember (Weet Je Nog)
TTITLE2=Anne (Anne)
TTITLE3=A Certain Tenderness (Dat Tedere Gevoel)
TTITLE4=Everything (Alles)
TTITLE5=House Rules (De Regels Van Het Gesticht)
TTITLE6=We Will Not Forget It Was A Rainy Day (Laten We Maar Zeggen Dat Het Regende)
TTITLE7=Kiss Goodnight (Kusje)
TTITLE8=Promises (Rozegeur)
TTITLE9=Split Second (Flits)
TTITLE10=Butterfly
EXTD=
EXTT0=
EXTT1=
EXTT2=
EXTT3=
EXTT4=
EXTT5=
EXTT6=
EXTT7=
EXTT8=
EXTT9=
EXTT10=
PLAYORDER=
